<svg id="visual" viewBox="0 0 900 600" width="900" height="600" xmlns="http://www.w3.org/2000/svg" xmlns:xlink="http://www.w3.org/1999/xlink" version="1.1"><rect x="0" y="0" width="900" height="600" fill="#001220"></rect><defs><linearGradient id="grad1_0" x1="33.3%" y1="0%" x2="100%" y2="100%"><stop offset="20%" stop-color="#001220" stop-opacity="1"></stop><stop offset="80%" stop-color="#001220" stop-opacity="1"></stop></linearGradient></defs><defs><linearGradient id="grad2_0" x1="0%" y1="0%" x2="66.7%" y2="100%"><stop offset="20%" stop-color="#001220" stop-opacity="1"></stop><stop offset="80%" stop-color="#001220" stop-opacity="1"></stop></linearGradient></defs><g transform="translate(900, 0)"><path d="M0 243.4C-23.8 236.1 -47.6 228.9 -72.3 222.5C-97 216.2 -122.5 210.8 -143.1 196.9C-163.6 183 -179.3 160.7 -190.1 138.1C-200.9 115.6 -206.9 92.9 -214.9 69.8C-223 46.8 -233.2 23.4 -243.4 0L0 0Z" fill="#FBAE3C"></path></g><g transform="translate(0, 600)"><path d="M0 -243.4C25.3 -239.6 50.6 -235.8 73.5 -226.4C96.5 -216.9 117.1 -201.7 134.6 -185.3C152.1 -168.9 166.4 -151.3 183.6 -133.4C200.9 -115.6 221 -97.5 231.5 -75.2C241.9 -52.9 242.6 -26.5 243.4 0L0 0Z" fill="#FBAE3C"></path></g></svg>